<svg xmlns="http://www.w3.org/2000/svg" viewBox="0 0 900 620" role="img" aria-labelledby="title desc">
  <title id="title">ReplyMate shared inbox screenshot</title>
  <desc id="desc">A chatbot dashboard showing customer conversations and AI suggested replies.</desc>
  <rect width="900" height="620" rx="28" fill="#f8f9fa"/>
  <rect x="36" y="36" width="828" height="548" rx="22" fill="#ffffff" stroke="#dbeafe" stroke-width="2"/>
  <rect x="36" y="36" width="196" height="548" rx="22" fill="#111827"/>
  <circle cx="80" cy="84" r="20" fill="#2563eb"/>
  <text x="110" y="91" font-family="Manrope, Arial" font-size="22" font-weight="800" fill="#ffffff">ReplyMate</text>
  <rect x="66" y="142" width="136" height="34" rx="8" fill="#1e40af"/>
  <rect x="66" y="194" width="118" height="18" rx="9" fill="#374151"/>
  <rect x="66" y="232" width="96" height="18" rx="9" fill="#374151"/>
  <rect x="66" y="270" width="128" height="18" rx="9" fill="#374151"/>
  <rect x="260" y="70" width="248" height="26" rx="13" fill="#111827"/>
  <rect x="260" y="118" width="198" height="16" rx="8" fill="#6b7280"/>
  <rect x="260" y="172" width="250" height="88" rx="12" fill="#eef6ff" stroke="#93c5fd"/>
  <circle cx="294" cy="216" r="18" fill="#14b8a6"/>
  <rect x="328" y="196" width="116" height="14" rx="7" fill="#111827"/>
  <rect x="328" y="224" width="146" height="12" rx="6" fill="#6b7280"/>
  <rect x="260" y="282" width="250" height="88" rx="12" fill="#ffffff" stroke="#e5e7eb"/>
  <circle cx="294" cy="326" r="18" fill="#60a5fa"/>
  <rect x="328" y="306" width="138" height="14" rx="7" fill="#111827"/>
  <rect x="328" y="334" width="116" height="12" rx="6" fill="#6b7280"/>
  <rect x="260" y="392" width="250" height="88" rx="12" fill="#ffffff" stroke="#e5e7eb"/>
  <circle cx="294" cy="436" r="18" fill="#f59e0b"/>
  <rect x="328" y="416" width="126" height="14" rx="7" fill="#111827"/>
  <rect x="328" y="444" width="150" height="12" rx="6" fill="#6b7280"/>
  <rect x="548" y="74" width="270" height="74" rx="14" fill="#f8f9fa" stroke="#e5e7eb"/>
  <rect x="574" y="98" width="148" height="14" rx="7" fill="#111827"/>
  <rect x="574" y="124" width="206" height="10" rx="5" fill="#6b7280"/>
  <rect x="548" y="184" width="214" height="62" rx="14" fill="#eef6ff"/>
  <text x="574" y="221" font-family="Manrope, Arial" font-size="16" font-weight="700" fill="#111827">How do I change my plan?</text>
  <rect x="604" y="268" width="214" height="84" rx="14" fill="#2563eb"/>
  <text x="630" y="302" font-family="Manrope, Arial" font-size="15" font-weight="700" fill="#ffffff">You can upgrade from Billing.</text>
  <text x="630" y="328" font-family="Manrope, Arial" font-size="15" font-weight="700" fill="#bfdbfe">Want me to send the link?</text>
  <rect x="548" y="392" width="270" height="88" rx="14" fill="#ecfeff" stroke="#5eead4"/>
  <rect x="574" y="418" width="144" height="14" rx="7" fill="#0f766e"/>
  <rect x="574" y="446" width="202" height="12" rx="6" fill="#6b7280"/>
  <rect x="548" y="508" width="270" height="42" rx="10" fill="#ffffff" stroke="#e5e7eb"/>
  <rect x="570" y="523" width="126" height="12" rx="6" fill="#9ca3af"/>
  <circle cx="790" cy="529" r="12" fill="#2563eb"/>
</svg>
