<svg xmlns="http://www.w3.org/2000/svg" viewBox="0 0 900 620" role="img" aria-labelledby="title desc">
  <title id="title">ReplyMate analytics screenshot</title>
  <desc id="desc">Analytics cards and charts for chatbot performance.</desc>
  <rect width="900" height="620" rx="28" fill="#eef6ff"/>
  <rect x="42" y="44" width="816" height="532" rx="22" fill="#ffffff" stroke="#bfdbfe" stroke-width="2"/>
  <text x="82" y="96" font-family="Manrope, Arial" font-size="30" font-weight="800" fill="#111827">Conversation analytics</text>
  <text x="82" y="128" font-family="Manrope, Arial" font-size="16" font-weight="700" fill="#6b7280">Last 30 days</text>
  <rect x="82" y="168" width="210" height="112" rx="16" fill="#f8f9fa" stroke="#e5e7eb"/>
  <text x="110" y="210" font-family="Manrope, Arial" font-size="16" font-weight="800" fill="#6b7280">Resolved</text>
  <text x="110" y="254" font-family="Manrope, Arial" font-size="42" font-weight="800" fill="#2563eb">68%</text>
  <rect x="318" y="168" width="210" height="112" rx="16" fill="#ecfeff" stroke="#5eead4"/>
  <text x="346" y="210" font-family="Manrope, Arial" font-size="16" font-weight="800" fill="#6b7280">Qualified leads</text>
  <text x="346" y="254" font-family="Manrope, Arial" font-size="42" font-weight="800" fill="#0f766e">1,248</text>
  <rect x="554" y="168" width="222" height="112" rx="16" fill="#fffbeb" stroke="#fcd34d"/>
  <text x="582" y="210" font-family="Manrope, Arial" font-size="16" font-weight="800" fill="#6b7280">Needs review</text>
  <text x="582" y="254" font-family="Manrope, Arial" font-size="42" font-weight="800" fill="#b45309">93</text>
  <rect x="82" y="326" width="444" height="190" rx="18" fill="#111827"/>
  <rect x="126" y="434" width="34" height="46" rx="8" fill="#60a5fa"/>
  <rect x="184" y="396" width="34" height="84" rx="8" fill="#60a5fa"/>
  <rect x="242" y="420" width="34" height="60" rx="8" fill="#60a5fa"/>
  <rect x="300" y="364" width="34" height="116" rx="8" fill="#5eead4"/>
  <rect x="358" y="382" width="34" height="98" rx="8" fill="#5eead4"/>
  <rect x="416" y="350" width="34" height="130" rx="8" fill="#5eead4"/>
  <text x="126" y="374" font-family="Manrope, Arial" font-size="16" font-weight="800" fill="#ffffff">Automation trend</text>
  <rect x="558" y="326" width="218" height="190" rx="18" fill="#f8f9fa" stroke="#e5e7eb"/>
  <circle cx="667" cy="412" r="56" fill="none" stroke="#e5e7eb" stroke-width="20"/>
  <path d="M667 356a56 56 0 1 1-53 74" fill="none" stroke="#14b8a6" stroke-width="20" stroke-linecap="round"/>
  <text x="631" y="421" font-family="Manrope, Arial" font-size="28" font-weight="800" fill="#0f766e">74%</text>
  <text x="600" y="482" font-family="Manrope, Arial" font-size="15" font-weight="800" fill="#6b7280">Intent confidence</text>
</svg>
