<svg xmlns="http://www.w3.org/2000/svg" viewBox="0 0 900 620" role="img" aria-labelledby="title desc">
  <title id="title">ReplyMate workflow builder screenshot</title>
  <desc id="desc">A no-code workflow builder for chatbot routing and lead qualification.</desc>
  <rect width="900" height="620" rx="28" fill="#f8f9fa"/>
  <rect x="44" y="46" width="812" height="528" rx="22" fill="#ffffff" stroke="#e5e7eb" stroke-width="2"/>
  <rect x="44" y="46" width="812" height="74" rx="22" fill="#111827"/>
  <text x="84" y="92" font-family="Manrope, Arial" font-size="24" font-weight="800" fill="#ffffff">Lead qualification flow</text>
  <rect x="656" y="68" width="146" height="30" rx="8" fill="#2563eb"/>
  <text x="695" y="88" font-family="Manrope, Arial" font-size="13" font-weight="800" fill="#ffffff">Publish</text>
  <rect x="84" y="168" width="210" height="92" rx="14" fill="#eef6ff" stroke="#93c5fd"/>
  <text x="112" y="204" font-family="Manrope, Arial" font-size="16" font-weight="800" fill="#1e40af">Visitor asks pricing</text>
  <text x="112" y="232" font-family="Manrope, Arial" font-size="13" font-weight="700" fill="#6b7280">Trigger: pricing intent</text>
  <path d="M294 214h82" stroke="#93c5fd" stroke-width="5" stroke-linecap="round"/>
  <path d="m366 202 14 12-14 12" fill="none" stroke="#93c5fd" stroke-width="5" stroke-linecap="round" stroke-linejoin="round"/>
  <rect x="386" y="168" width="210" height="92" rx="14" fill="#ecfeff" stroke="#5eead4"/>
  <text x="414" y="204" font-family="Manrope, Arial" font-size="16" font-weight="800" fill="#0f766e">Ask team size</text>
  <text x="414" y="232" font-family="Manrope, Arial" font-size="13" font-weight="700" fill="#6b7280">Question: custom field</text>
  <path d="M596 214h82" stroke="#93c5fd" stroke-width="5" stroke-linecap="round"/>
  <path d="m668 202 14 12-14 12" fill="none" stroke="#93c5fd" stroke-width="5" stroke-linecap="round" stroke-linejoin="round"/>
  <rect x="688" y="168" width="128" height="92" rx="14" fill="#fffbeb" stroke="#fcd34d"/>
  <text x="716" y="204" font-family="Manrope, Arial" font-size="16" font-weight="800" fill="#b45309">Score</text>
  <text x="716" y="232" font-family="Manrope, Arial" font-size="13" font-weight="700" fill="#6b7280">Hot lead</text>
  <path d="M491 260v66" stroke="#93c5fd" stroke-width="5" stroke-linecap="round"/>
  <path d="m479 316 12 14 12-14" fill="none" stroke="#93c5fd" stroke-width="5" stroke-linecap="round" stroke-linejoin="round"/>
  <rect x="316" y="336" width="350" height="112" rx="16" fill="#ffffff" stroke="#e5e7eb"/>
  <text x="350" y="376" font-family="Manrope, Arial" font-size="18" font-weight="800" fill="#111827">Route to CRM and sales channel</text>
  <rect x="350" y="404" width="96" height="22" rx="8" fill="#dbeafe"/>
  <rect x="460" y="404" width="86" height="22" rx="8" fill="#ccfbf1"/>
  <rect x="560" y="404" width="70" height="22" rx="8" fill="#fcd34d"/>
  <rect x="84" y="488" width="732" height="36" rx="10" fill="#f8f9fa" stroke="#e5e7eb"/>
  <rect x="110" y="500" width="170" height="12" rx="6" fill="#6b7280"/>
  <rect x="612" y="498" width="172" height="16" rx="8" fill="#14b8a6"/>
</svg>
